<?xml version="1.0" encoding="UTF-8" standalone="no"?>
<!DOCTYPE svg PUBLIC "-//W3C//DTD SVG 1.1//EN" "http://www.w3.org/Graphics/SVG/1.1/DTD/svg11.dtd">
<svg width="100%" height="100%" viewBox="0 0 24 24" version="1.1" xmlns="http://www.w3.org/2000/svg" xmlns:xlink="http://www.w3.org/1999/xlink" xml:space="preserve" xmlns:serif="http://www.serif.com/" style="fill-rule:evenodd;clip-rule:evenodd;stroke-linejoin:round;stroke-miterlimit:2;">
    <g transform="matrix(2.09637,0,0,2.09637,-0.637007,-10.9849)">
        <g id="Layer1">
            <g>
                <path d="M3.23,10.509C7.239,10.509 6.991,9.432 7.443,5.573C8.089,9.117 7.443,10.383 11.752,10.509C7.705,11.267 7.92,12.759 7.443,16.356C7.045,12.959 6.84,10.935 3.23,10.509Z"/>
                <g transform="matrix(0.431209,0,0,0.431209,-1.08889,3.16966)">
                    <path d="M3.23,10.509C7.239,10.509 6.991,9.432 7.443,5.573C8.089,9.117 7.443,10.383 11.752,10.509C7.705,11.267 7.92,12.759 7.443,16.356C7.045,12.959 6.84,10.935 3.23,10.509Z"/>
                </g>
                <g transform="matrix(0.431209,0,0,0.431209,0.748566,9.30296)">
                    <path d="M3.23,10.509C7.239,10.509 6.991,9.432 7.443,5.573C8.089,9.117 7.443,10.383 11.752,10.509C7.705,11.267 7.92,12.759 7.443,16.356C7.045,12.959 6.84,10.935 3.23,10.509Z"/>
                </g>
            </g>
        </g>
    </g>
</svg>
