<?xml version="1.0" encoding="UTF-8" standalone="no"?>
<!DOCTYPE svg PUBLIC "-//W3C//DTD SVG 1.1//EN" "http://www.w3.org/Graphics/SVG/1.1/DTD/svg11.dtd">
<svg width="100%" height="100%" viewBox="0 0 24 24" version="1.1" xmlns="http://www.w3.org/2000/svg" xmlns:xlink="http://www.w3.org/1999/xlink" xml:space="preserve" xmlns:serif="http://www.serif.com/" style="fill-rule:evenodd;clip-rule:evenodd;stroke-linejoin:round;stroke-miterlimit:2;">
    <g id="Layer1">
        <g transform="matrix(0.519856,0,0,0.519856,3.55271e-15,5.32907e-15)">
            <path d="M0,0L43.75,0" style="fill:none;"/>
        </g>
        <g transform="matrix(1,0,0,1,-0.494139,-0.498647)">
            <g transform="matrix(0.952982,0,0,0.952982,-3.88451,-3.87427)">
                <path d="M7.735,24L5.112,24L5.112,5.112L24,5.112L24,7.735L7.735,7.735L7.735,24Z"/>
            </g>
            <g transform="matrix(0.952982,0,0,0.952982,1.12967,1.12844)">
                <path d="M24,5.112L24,24L5.112,24L5.112,5.112L24,5.112ZM21.377,7.735L7.735,7.735L7.735,21.377L21.377,21.377L21.377,7.735Z"/>
            </g>
        </g>
    </g>
</svg>
