<?xml version="1.0" encoding="UTF-8" standalone="no"?>
<!DOCTYPE svg PUBLIC "-//W3C//DTD SVG 1.1//EN" "http://www.w3.org/Graphics/SVG/1.1/DTD/svg11.dtd">
<svg width="100%" height="100%" viewBox="0 0 24 24" version="1.1" xmlns="http://www.w3.org/2000/svg" xmlns:xlink="http://www.w3.org/1999/xlink" xml:space="preserve" xmlns:serif="http://www.serif.com/" style="fill-rule:evenodd;clip-rule:evenodd;stroke-linejoin:round;stroke-miterlimit:2;">
    <g id="Layer1">
        <g transform="matrix(0.519856,0,0,0.519856,3.55271e-15,5.32907e-15)">
            <path d="M0,0L43.75,0" style="fill:none;"/>
        </g>
        <g transform="matrix(1,0,0,1,-0.494139,-0.498647)">
            <g transform="matrix(0.952982,0,0,0.952982,-3.88451,-3.87427)">
                <path d="M7.735,24L6.138,24C5.866,24 5.605,23.892 5.412,23.7C5.22,23.507 5.112,23.246 5.112,22.974C5.112,19.686 5.112,9.433 5.112,6.141C5.112,5.572 5.572,5.112 6.141,5.112L22.99,5.112C23.258,5.112 23.515,5.218 23.704,5.408C23.894,5.597 24,5.854 24,6.122C24,6.861 24,7.735 24,7.735L7.735,7.735L7.735,24Z"/>
            </g>
            <g transform="matrix(0.952982,0,0,0.952982,1.12967,1.12844)">
                <path d="M22.95,5.112C23.53,5.112 24,5.582 24,6.161L24,22.966C24,23.537 23.537,24 22.966,24L6.125,24C5.565,24 5.112,23.547 5.112,22.987C5.112,19.737 5.112,9.581 5.112,6.211C5.112,5.604 5.604,5.112 6.211,5.112C9.568,5.112 19.66,5.112 22.95,5.112ZM21.377,7.735L7.735,7.735L7.735,21.377L21.377,21.377L21.377,7.735Z"/>
            </g>
        </g>
    </g>
</svg>
